<svg width="48" height="48" viewBox="0 0 48 48" fill="none" xmlns="http://www.w3.org/2000/svg">
<path d="M24 48C20.72 48 17.62 47.37 14.7 46.11C11.78 44.85 9.23 43.13 7.05 40.95C4.87 38.77 3.15 36.22 1.89 33.3C0.63 30.38 0 27.28 0 24C0 20.72 0.63 17.62 1.89 14.7C3.15 11.78 4.87 9.22999 7.05 7.04999C9.23 4.86999 11.78 3.14999 14.7 1.88999C17.62 0.629985 20.72 -1.4782e-05 24 -1.4782e-05C27.28 -1.4782e-05 30.38 0.629985 33.3 1.88999C36.22 3.14999 38.77 4.86999 40.95 7.04999C43.13 9.22999 44.85 11.78 46.11 14.7C47.37 17.62 48 20.72 48 24C48 27.28 47.37 30.38 46.11 33.3C44.85 36.22 43.13 38.77 40.95 40.95C38.77 43.13 36.22 44.85 33.3 46.11C30.38 47.37 27.28 48 24 48ZM24 44.4C29.6 44.4 34.4 42.4 38.4 38.4C42.4 34.4 44.4 29.6 44.4 24C44.4 18.4 42.4 13.6 38.4 9.59999C34.4 5.59999 29.6 3.59999 24 3.59999C18.4 3.59999 13.6 5.59999 9.6 9.59999C5.6 13.6 3.6 18.4 3.6 24C3.6 29.6 5.6 34.4 9.6 38.4C13.6 42.4 18.4 44.4 24 44.4Z" fill="#C4C4CC"/>
<line x1="20" y1="35.11" x2="20" y2="14.11" stroke="#C4C4CC" stroke-width="4"/>
<line x1="28" y1="35.11" x2="28" y2="14.11" stroke="#C4C4CC" stroke-width="4"/>
</svg>
